<svg width="80" height="81" viewBox="0 0 80 81" fill="none" xmlns="http://www.w3.org/2000/svg">
<rect y="0.847229" width="80" height="80" rx="40" fill="black"/>
<path d="M40 24.4617C45.3012 24.4617 46.0241 24.4617 48.1928 24.4617C50.1205 24.4617 51.0843 24.9436 51.8072 25.1846C52.7711 25.6665 53.494 25.9075 54.2169 26.6304C54.9398 27.3533 55.4217 28.0761 55.6627 29.04C55.9036 29.7629 56.1446 30.7267 56.3855 32.6545C56.3855 34.8231 56.3855 35.3051 56.3855 40.8472C56.3855 46.3894 56.3855 46.8713 56.3855 49.04C56.3855 50.9677 55.9036 51.9316 55.6627 52.6545C55.1807 53.6183 54.9398 54.3412 54.2169 55.0641C53.494 55.787 52.7711 56.2689 51.8072 56.5099C51.0843 56.7509 50.1205 56.9918 48.1928 57.2328C46.0241 57.2328 45.5422 57.2328 40 57.2328C34.4578 57.2328 33.9759 57.2328 31.8072 57.2328C29.8795 57.2328 28.9157 56.7509 28.1928 56.5099C27.2289 56.028 26.506 55.787 25.7831 55.0641C25.0602 54.3412 24.5783 53.6183 24.3374 52.6545C24.0964 51.9316 23.8554 50.9677 23.6145 49.04C23.6145 46.8713 23.6145 46.3894 23.6145 40.8472C23.6145 35.3051 23.6145 34.8231 23.6145 32.6545C23.6145 30.7267 24.0964 29.7629 24.3374 29.04C24.8193 28.0761 25.0602 27.3533 25.7831 26.6304C26.506 25.9075 27.2289 25.4255 28.1928 25.1846C28.9157 24.9436 29.8795 24.7027 31.8072 24.4617C33.9759 24.4617 34.6988 24.4617 40 24.4617ZM40 20.8472C34.4578 20.8472 33.9759 20.8472 31.8072 20.8472C29.6386 20.8472 28.1928 21.3292 26.988 21.8111C25.7831 22.293 24.5783 23.0159 23.3735 24.2207C22.1687 25.4255 21.6867 26.3894 20.9639 27.8352C20.4819 29.04 20.241 30.4858 20 32.6545C20 34.8231 20 35.546 20 40.8472C20 46.3894 20 46.8713 20 49.04C20 51.2087 20.4819 52.6545 20.9639 53.8593C21.4458 55.0641 22.1687 56.2689 23.3735 57.4737C24.5783 58.6786 25.5422 59.1605 26.988 59.8834C28.1928 60.3653 29.6386 60.6063 31.8072 60.8472C33.9759 60.8472 34.6988 60.8472 40 60.8472C45.3012 60.8472 46.0241 60.8472 48.1928 60.8472C50.3614 60.8472 51.8072 60.3653 53.0121 59.8834C54.2169 59.4015 55.4217 58.6786 56.6265 57.4737C57.8313 56.2689 58.3133 55.3051 59.0362 53.8593C59.5181 52.6545 59.759 51.2087 60 49.04C60 46.8713 60 46.1484 60 40.8472C60 35.546 60 34.8231 60 32.6545C60 30.4858 59.5181 29.04 59.0362 27.8352C58.5542 26.6304 57.8313 25.4255 56.6265 24.2207C55.4217 23.0159 54.4578 22.534 53.0121 21.8111C51.8072 21.3292 50.3614 21.0882 48.1928 20.8472C46.0241 20.8472 45.5422 20.8472 40 20.8472Z" fill="#FFF4B5"/>
<path d="M40 30.4858C34.2169 30.4858 29.6386 35.0641 29.6386 40.8472C29.6386 46.6304 34.2169 51.2087 40 51.2087C45.7831 51.2087 50.3614 46.6304 50.3614 40.8472C50.3614 35.0641 45.7831 30.4858 40 30.4858ZM40 47.5942C36.3855 47.5942 33.253 44.7027 33.253 40.8472C33.253 37.2328 36.1446 34.1002 40 34.1002C43.6145 34.1002 46.747 36.9918 46.747 40.8472C46.747 44.4617 43.6145 47.5942 40 47.5942Z" fill="#FFF4B5"/>
<path d="M50.6024 32.6545C51.9332 32.6545 53.0121 31.5756 53.0121 30.2448C53.0121 28.914 51.9332 27.8352 50.6024 27.8352C49.2716 27.8352 48.1928 28.914 48.1928 30.2448C48.1928 31.5756 49.2716 32.6545 50.6024 32.6545Z" fill="#FFF4B5"/>
</svg>
