<svg width="80" height="80" viewBox="0 0 80 80" fill="none" xmlns="http://www.w3.org/2000/svg">
<rect width="80" height="80" rx="40" fill="black"/>
<path d="M41.965 54C26.9319 54 18.3573 43.4895 18 26H25.5303C25.7776 38.8368 31.3292 44.2743 35.7264 45.3954V26H42.817V37.0711C47.1593 36.5946 51.7214 31.5495 53.2605 26H60.351C59.7711 28.8782 58.615 31.6033 56.9552 34.005C55.2954 36.4067 53.1675 38.4333 50.7046 39.958C53.4537 41.3511 55.882 43.323 57.829 45.7435C59.7761 48.164 61.1977 50.9781 62 54H54.1949C53.4746 51.3752 52.0108 49.0256 49.9868 47.2456C47.9628 45.4657 45.4687 44.3345 42.817 43.994V54H41.965Z" fill="#FFF4B5"/>
</svg>
