<svg width="40" height="40" viewBox="0 0 40 40" fill="none" xmlns="http://www.w3.org/2000/svg">
<path fill-rule="evenodd" clip-rule="evenodd" d="M20 40C31.0457 40 40 31.0457 40 20C40 8.9543 31.0457 0 20 0C8.9543 0 0 8.9543 0 20C0 31.0457 8.9543 40 20 40ZM21.956 29.2211C24.6902 29.2211 27.2562 28.2105 29.1912 26.4842L31 28.5474C28.5602 30.6947 25.3633 32 21.914 32C14.6788 32 9 26.3579 9 19.5789C9 13.2211 14.0478 8 20.3996 8C26.3728 8 30.9159 12.6737 30.9579 18.0211C30.9579 23.0316 27.0038 27.2421 21.956 27.2421C17.413 27.2421 13.8375 23.7474 13.8375 19.5368C13.8375 15.8316 16.74 12.6737 20.4417 12.6737C23.6386 12.6737 26.1625 15.0737 26.1625 18.0211C26.1625 20.4211 24.3537 22.5263 21.956 22.5263C20.3155 22.5263 18.6329 21.3474 18.6329 19.5368C18.6329 19.0737 18.7591 18.6526 18.9694 18.2737C19.1797 17.9789 19.6004 17.5158 20.2314 17.4316C20.9885 17.3474 21.6616 17.8526 21.7878 18.6105C21.8298 18.9895 21.7036 19.3684 21.4933 19.6632C21.5774 19.7474 21.6616 19.7895 21.914 19.7895C22.6291 19.7895 23.3862 19.1158 23.3862 18.0632C23.3862 16.8421 22.2505 15.4947 20.3996 15.4947C18.3384 15.4947 16.5717 17.3053 16.5717 19.5789C16.5717 22.1053 18.8011 24.5053 21.956 24.5053C25.3633 24.5053 28.1816 21.6 28.1816 18.0632C28.1816 14.2737 24.9006 10.7789 20.3996 10.7789C15.6042 10.7789 11.7763 14.7368 11.7763 19.5789C11.7763 24.7158 16.1511 29.2211 21.956 29.2211Z" fill="black"/>
</svg>
